<svg width="53" height="64" viewBox="0 0 53 64" fill="none" xmlns="http://www.w3.org/2000/svg">
<path d="M14.0781 40H52.1719V23.71C52.1719 18.35 49.2072 14 45.5469 14H8.28125" fill="#E1E6E9"/>
<path d="M52.1719 41H14.0781C13.8585 41 13.6479 40.8946 13.4926 40.7071C13.3372 40.5196 13.25 40.2652 13.25 40C13.25 39.7348 13.3372 39.4804 13.4926 39.2929C13.6479 39.1054 13.8585 39 14.0781 39H51.3438V23.71C51.3438 18.91 48.7434 15 45.5469 15H8.28125C8.06162 15 7.85098 14.8946 7.69568 14.7071C7.54037 14.5196 7.45312 14.2652 7.45312 14C7.45312 13.7348 7.54037 13.4804 7.69568 13.2929C7.85098 13.1054 8.06162 13 8.28125 13H45.5469C49.6875 13 53 17.81 53 23.71V40C53 40.2652 52.9128 40.5196 52.7575 40.7071C52.6021 40.8946 52.3915 41 52.1719 41Z" fill="black"/>
<path d="M9.10938 14C10.1969 14 11.2737 14.2587 12.2785 14.7612C13.2832 15.2638 14.1961 16.0003 14.9651 16.9289C15.7341 17.8575 16.3441 18.9599 16.7603 20.1732C17.1764 21.3864 17.3906 22.6868 17.3906 24V40H0.828125V24C0.828125 21.3478 1.70061 18.8043 3.25365 16.9289C4.80668 15.0536 6.91305 14 9.10938 14Z" fill="#19D3DA"/>
<path d="M17.3906 41H0.828125C0.608493 41 0.397856 40.8946 0.242552 40.7071C0.0872486 40.5196 0 40.2652 0 40V24C3.60006e-08 21.0826 0.959735 18.2847 2.66807 16.2218C4.37641 14.1589 6.69342 13 9.10938 13C11.5253 13 13.8423 14.1589 15.5507 16.2218C17.259 18.2847 18.2188 21.0826 18.2188 24V40C18.2188 40.2652 18.1315 40.5196 17.9762 40.7071C17.8209 40.8946 17.6103 41 17.3906 41ZM1.65625 39H16.5625V24C16.5625 21.6131 15.7773 19.3239 14.3795 17.636C12.9818 15.9482 11.0861 15 9.10938 15C7.13268 15 5.23695 15.9482 3.83922 17.636C2.44149 19.3239 1.65625 21.6131 1.65625 24V39Z" fill="black"/>
<path d="M36.4375 27C37.8096 27 38.9219 25.6569 38.9219 24C38.9219 22.3431 37.8096 21 36.4375 21C35.0654 21 33.9531 22.3431 33.9531 24C33.9531 25.6569 35.0654 27 36.4375 27Z" fill="#44C4A1"/>
<path d="M36.4375 28C35.7824 28 35.1419 27.7654 34.5972 27.3259C34.0524 26.8864 33.6279 26.2616 33.3772 25.5307C33.1264 24.7998 33.0608 23.9956 33.1887 23.2196C33.3165 22.4437 33.6319 21.731 34.0952 21.1716C34.5585 20.6122 35.1487 20.2312 35.7913 20.0769C36.4338 19.9225 37.0999 20.0017 37.7051 20.3045C38.3104 20.6072 38.8278 21.1199 39.1917 21.7777C39.5557 22.4355 39.75 23.2089 39.75 24C39.75 25.0609 39.401 26.0783 38.7798 26.8284C38.1586 27.5786 37.316 28 36.4375 28ZM36.4375 22C36.1099 22 35.7897 22.1173 35.5173 22.3371C35.245 22.5568 35.0327 22.8692 34.9073 23.2346C34.782 23.6001 34.7492 24.0022 34.8131 24.3902C34.877 24.7781 35.0347 25.1345 35.2664 25.4142C35.498 25.6939 35.7931 25.8844 36.1144 25.9616C36.4357 26.0387 36.7687 25.9991 37.0713 25.8478C37.374 25.6964 37.6326 25.44 37.8146 25.1111C37.9966 24.7822 38.0938 24.3956 38.0938 24C38.0938 23.4696 37.9193 22.9609 37.6086 22.5858C37.298 22.2107 36.8768 22 36.4375 22Z" fill="black"/>
<path d="M36.4375 22C36.2179 22 36.0072 21.8946 35.8519 21.7071C35.6966 21.5196 35.6094 21.2652 35.6094 21V1C35.6094 0.734784 35.6966 0.48043 35.8519 0.292893C36.0072 0.105357 36.2179 0 36.4375 0C36.6571 0 36.8678 0.105357 37.0231 0.292893C37.1784 0.48043 37.2656 0.734784 37.2656 1V21C37.2656 21.2652 37.1784 21.5196 37.0231 21.7071C36.8678 21.8946 36.6571 22 36.4375 22Z" fill="black"/>
<path d="M36.4375 1H46.375V9H36.4375V1Z" fill="#72BEDE"/>
<path d="M46.375 10H36.4375C36.2179 10 36.0072 9.89464 35.8519 9.70711C35.6966 9.51957 35.6094 9.26522 35.6094 9V1C35.6094 0.734784 35.6966 0.48043 35.8519 0.292893C36.0072 0.105357 36.2179 0 36.4375 0H46.375C46.5946 0 46.8053 0.105357 46.9606 0.292893C47.1159 0.48043 47.2031 0.734784 47.2031 1V9C47.2031 9.26522 47.1159 9.51957 46.9606 9.70711C46.8053 9.89464 46.5946 10 46.375 10ZM37.2656 8H45.5469V2H37.2656V8ZM30.6406 64C30.421 64 30.2104 63.8946 30.0551 63.7071C29.8997 63.5196 29.8125 63.2652 29.8125 63V40C29.8125 39.7348 29.8997 39.4804 30.0551 39.2929C30.2104 39.1054 30.421 39 30.6406 39C30.8603 39 31.0709 39.1054 31.2262 39.2929C31.3815 39.4804 31.4688 39.7348 31.4688 40V63C31.4688 63.2652 31.3815 63.5196 31.2262 63.7071C31.0709 63.8946 30.8603 64 30.6406 64Z" fill="black"/>
</svg>
