<svg width="38" height="50" viewBox="0 0 38 50" fill="none" xmlns="http://www.w3.org/2000/svg">
<path d="M18.9826 41.5833C14.4169 41.5833 10.5585 44.599 9.28601 48.7471H28.6705C27.3982 44.599 23.5412 41.5833 18.9826 41.5833Z" fill="#CA986E"/>
<path opacity="0.05" d="M24.9097 48.7471H28.667C27.3948 44.6006 23.5385 41.585 18.9832 41.585C18.3433 41.585 17.7233 41.645 17.1132 41.765C20.8218 42.4609 23.8157 45.1862 24.9097 48.7471ZM31.9654 31.5604C31.9654 31.5604 30.7658 36.1462 27.1908 38.2691C23.6134 40.4016 19.0056 39.248 19.0056 39.248C19.0056 39.248 19.2301 38.4074 19.7664 37.2748C21.4346 37.3697 23.8049 37.2204 25.8477 36.0073C27.8906 34.7942 29.1561 32.7845 29.859 31.2816C31.1101 31.3527 31.9654 31.5604 31.9654 31.5604Z" fill="black"/>
<path d="M23.7855 32.5388C20.2078 34.6634 19.0096 39.2521 19.0096 39.2521C19.0096 39.2521 23.6121 40.3963 27.1899 38.2717C30.7676 36.1472 31.9658 31.5584 31.9658 31.5584C31.9658 31.5584 27.3633 30.4142 23.7855 32.5388ZM14.1983 30.3721C10.6205 28.2476 6.01807 29.3918 6.01807 29.3918C6.01807 29.3918 7.21619 33.9805 10.7939 36.1051C14.3716 38.2297 18.9742 37.0855 18.9742 37.0855C18.9742 37.0855 17.776 32.4967 14.1983 30.3721Z" fill="#55D393"/>
<g opacity="0.05">
<path opacity="0.05" d="M6.01849 29.3937C6.01849 29.3937 7.21803 33.9795 10.793 36.1024C14.3704 38.235 18.9782 37.0813 18.9782 37.0813C18.9782 37.0813 18.7538 36.2407 18.2174 35.1081C16.5492 35.203 14.1789 35.0537 12.1361 33.8406C10.0933 32.6275 8.82776 30.6178 8.12486 29.1149C6.8737 29.186 6.01849 29.3937 6.01849 29.3937Z" fill="black"/>
</g>
<path d="M37.2048 3.25985V26.4164H0.749756V3.25985L3.59781 0.75354C5.96738 1.83959 8.32935 2.67504 10.6989 3.25986H27.2556C29.6252 2.67505 31.9871 1.83959 34.3491 0.75354L37.2048 3.25985Z" fill="#19D3DA"/>
<path opacity="0.05" d="M37.2083 3.25714V26.4171H0.748291V23.5171H21.9583C28.7683 23.5171 34.2983 17.9871 34.2983 11.1771V0.777101C34.3183 0.777101 34.3283 0.767091 34.3483 0.757141L37.2083 3.25714Z" fill="#231F20"/>
<path d="M34.3526 0.750183V23.517H21.6798C20.1869 23.517 18.9761 24.7279 18.9761 26.2207V3.45272C18.9761 1.96015 20.186 0.750183 21.6786 0.750183H34.3526Z" fill="#E2E2E2"/>
<path opacity="0.05" d="M34.3483 0.747131V23.5171H21.6782C20.1882 23.5171 18.9782 24.7271 18.9782 26.2171V19.8971H25.9683C28.9683 19.8971 31.3983 17.4671 31.3983 14.4771V0.747131H34.3483Z" fill="#231F20"/>
<path d="M18.9782 3.45709V26.2171C18.9782 25.4671 18.6782 24.7971 18.1782 24.3071C17.6982 23.8171 17.0182 23.5171 16.2682 23.5171H3.59827V0.747131H16.2783C17.7682 0.747131 18.9782 1.95709 18.9782 3.45709Z" fill="#E2E2E2"/>
<path opacity="0.05" d="M18.9782 19.8971V26.2171C18.9782 25.4671 18.6782 24.7971 18.1782 24.3071C17.6982 23.8171 17.0182 23.5171 16.2682 23.5171H3.59827V19.8971H18.9782Z" fill="#231F20"/>
<path d="M37.9551 3.25976C37.9551 3.04394 37.8623 2.83837 37.7002 2.69579L34.8894 0.22955C34.7421 0.07787 34.4527 0 34.3526 0H21.6787C20.5786 0 19.6084 0.52655 18.9756 1.33026C18.343 0.52655 17.3731 0 16.2735 0H3.59963C3.0316 0 2.47732 0.87659 0.2549 2.69678C0.09279 2.83936 0 3.04444 0 3.25977V26.4165C0 26.4176 0.000629902 26.4185 0.000629902 26.4196C0.0024899 26.8443 0.35253 27.1665 0.75 27.1665H18.2285V33.5224C17.4251 32.1764 16.2465 30.7158 14.5811 29.7271C12.0585 28.2292 8.41468 28.0309 5.83693 28.6636C5.42918 28.765 5.18711 29.1807 5.29201 29.5811C5.34377 29.7808 6.61135 34.4942 10.4111 36.75C12.7158 38.1185 15.6292 38.3642 18.2285 37.9849V40.8637C13.7342 41.1679 9.9062 44.1675 8.56935 48.5274C8.49904 48.7544 8.54201 49.0015 8.68263 49.1929C8.82423 49.3843 9.04786 49.4971 9.28615 49.4971H28.6709C28.9092 49.4971 29.1328 49.3843 29.2744 49.1929C29.4151 49.0015 29.458 48.7544 29.3877 48.5274C28.0501 44.1652 24.2223 41.1649 19.7285 40.8634V40.1477C22.3591 40.5372 25.274 40.2817 27.5723 38.917C31.3721 36.6606 32.6397 31.9478 32.6914 31.7481C32.7422 31.5542 32.7129 31.3482 32.6104 31.1758C32.5088 31.0034 32.3418 30.8789 32.1465 30.8306C29.6408 30.2155 25.9919 30.3564 23.4024 31.8941C21.7174 32.8947 20.5323 34.3779 19.7285 35.7371V27.1665H37.2051C37.6055 27.1665 37.9529 26.8427 37.9545 26.4194C37.9545 26.4184 37.9551 26.4175 37.9551 26.4165V3.25976H37.9551ZM11.1768 35.46C8.76076 34.0254 7.49709 31.3052 7 29.9741C9.26511 29.6463 11.8347 29.841 13.8155 31.0171C16.2315 32.4517 17.4951 35.1719 17.9922 36.5029C15.7271 36.8307 13.1575 36.6361 11.1768 35.46ZM30.9834 32.1411C30.4864 33.4722 29.2227 36.1924 26.8067 37.6269C24.8194 38.8079 22.2472 38.9958 19.9922 38.6694C21.9606 33.3984 25.7473 31.3834 30.9834 32.1411ZM27.5987 47.9971H10.3584C11.8291 44.5708 15.1768 42.3335 18.9824 42.3335C22.7832 42.3335 26.128 44.5708 27.5987 47.9971ZM36.4551 24.5853L35.1026 23.2106V2.41266L36.4551 3.59961V24.5853ZM3.91451 24.2671H16.2725C16.7959 24.2671 17.2842 24.4702 17.6543 24.8452C17.8875 25.0753 18.0456 25.3589 18.1367 25.6665H2.53914L3.91451 24.2671ZM34.0389 24.2671L35.4157 25.6665H19.8155C20.0563 24.8603 20.7963 24.2671 21.6797 24.2671H34.0389ZM21.6787 1.5H33.6026V22.7671H21.6797C20.9563 22.7671 20.2836 22.9906 19.7285 23.3723V17.583C19.7285 17.5779 19.7257 17.5736 19.7256 17.5685V3.45263C19.7256 2.37597 20.6016 1.5 21.6787 1.5ZM4.34963 1.5H16.2735C17.3496 1.5 18.2256 2.37598 18.2256 3.45264V23.3726C17.6573 22.979 16.9825 22.7671 16.2725 22.7671H4.34963V1.5ZM2.84963 2.4107V23.2098L1.5 24.583V3.59863L2.84963 2.4107Z" fill="#293C66"/>
<path d="M22.8652 6.61523H30.4639C30.8779 6.61523 31.2139 6.27929 31.2139 5.86523C31.2139 5.45117 30.8779 5.11523 30.4639 5.11523H22.8652C22.4512 5.11523 22.1152 5.45117 22.1152 5.86523C22.1152 6.27929 22.4512 6.61523 22.8652 6.61523ZM22.8652 11.0322H30.4639C30.8779 11.0322 31.2139 10.6963 31.2139 10.2822C31.2139 9.86816 30.8779 9.53222 30.4639 9.53222H22.8652C22.4512 9.53222 22.1152 9.86816 22.1152 10.2822C22.1152 10.6963 22.4512 11.0322 22.8652 11.0322ZM22.8652 15.4497H30.4639C30.8779 15.4497 31.2139 15.1138 31.2139 14.6997C31.2139 14.2856 30.8779 13.9497 30.4639 13.9497H22.8652C22.4512 13.9497 22.1152 14.2856 22.1152 14.6997C22.1152 15.1138 22.4512 15.4497 22.8652 15.4497ZM22.8652 19.8672H30.4639C30.8779 19.8672 31.2139 19.5313 31.2139 19.1172C31.2139 18.7031 30.8779 18.3672 30.4639 18.3672H22.8652C22.4512 18.3672 22.1152 18.7031 22.1152 19.1172C22.1152 19.5313 22.4512 19.8672 22.8652 19.8672ZM15.0869 5.11523H7.48828C7.07422 5.11523 6.73828 5.45117 6.73828 5.86523C6.73828 6.27929 7.07422 6.61523 7.48828 6.61523H15.0869C15.501 6.61523 15.8369 6.27929 15.8369 5.86523C15.8369 5.45117 15.501 5.11523 15.0869 5.11523ZM15.0869 9.53222H7.48828C7.07422 9.53222 6.73828 9.86816 6.73828 10.2822C6.73828 10.6963 7.07422 11.0322 7.48828 11.0322H15.0869C15.501 11.0322 15.8369 10.6963 15.8369 10.2822C15.8369 9.86816 15.501 9.53222 15.0869 9.53222ZM15.0869 13.9497H7.48828C7.07422 13.9497 6.73828 14.2856 6.73828 14.6997C6.73828 15.1138 7.07422 15.4497 7.48828 15.4497H15.0869C15.501 15.4497 15.8369 15.1138 15.8369 14.6997C15.8369 14.2856 15.501 13.9497 15.0869 13.9497ZM15.0869 18.3672H7.48828C7.07422 18.3672 6.73828 18.7031 6.73828 19.1172C6.73828 19.5313 7.07422 19.8672 7.48828 19.8672H15.0869C15.501 19.8672 15.8369 19.5313 15.8369 19.1172C15.8369 18.7031 15.501 18.3672 15.0869 18.3672Z" fill="#293C66"/>
</svg>
