<svg width="1017" height="834" viewBox="0 0 1017 834" fill="none" xmlns="http://www.w3.org/2000/svg">
<path d="M1016 370.408H1L508.5 1L1016 370.408Z" fill="#19D3DA" stroke="#303026" stroke-width="1.665" stroke-miterlimit="10" stroke-linecap="round" stroke-linejoin="round"/>
<path d="M1016 370.408L508.5 601.704L1 370.408H1016Z" fill="#19D3DA" stroke="#303026" stroke-width="1.665" stroke-miterlimit="10" stroke-linecap="round" stroke-linejoin="round"/>
<path d="M861.738 160.744H155.262V658.28H861.738V160.744Z" fill="white" stroke="#303026" stroke-width="1.665" stroke-miterlimit="10" stroke-linecap="round" stroke-linejoin="round"/>
<path d="M1016 370.408V833L508.5 601.704L1016 370.408Z" fill="#19D3DA" stroke="#303026" stroke-width="1.665" stroke-miterlimit="10" stroke-linecap="round" stroke-linejoin="round"/>
<path d="M1016 833H1V370.408L1016 833Z" fill="#94E2E4" stroke="#303026" stroke-width="1.665" stroke-miterlimit="10" stroke-linecap="round" stroke-linejoin="round"/>
<ellipse cx="411" cy="674" rx="62" ry="60" fill="#FEFDFD"/>
<circle cx="406.5" cy="669.5" r="22.5" fill="#0C0B0B"/>
<path d="M414 670C414 674.418 410.418 678 406 678C401.582 678 398 674.418 398 670C398 665.582 401.582 662 406 662C410.418 662 414 665.582 414 670Z" fill="white"/>
<circle cx="426" cy="665" r="5" fill="white"/>
<ellipse cx="606" cy="674" rx="62" ry="60" fill="#FEFDFD"/>
<circle cx="606.5" cy="669.5" r="22.5" fill="#0C0B0B"/>
<path d="M614 670C614 674.418 610.418 678 606 678C601.582 678 598 674.418 598 670C598 665.582 601.582 662 606 662C610.418 662 614 665.582 614 670Z" fill="white"/>
<circle cx="626" cy="665" r="5" fill="white"/>
<path d="M557 764.051C557 786.667 535.286 805 508.5 805C481.714 805 460 786.667 460 764.051C460 741.436 481.714 764.051 508.5 764.051C535.286 764.051 557 741.436 557 764.051Z" fill="white"/>
<path fill-rule="evenodd" clip-rule="evenodd" d="M557 764.051C557 786.667 535.286 805 508.5 805C481.714 805 460 786.667 460 764.051C460 750.375 467.941 753.24 480.142 757.641C483.423 758.824 487.012 760.119 490.837 761.233C490.478 762.309 490.283 763.47 490.283 764.681C490.283 770.248 494.419 774.761 499.521 774.761C504.623 774.761 508.759 770.248 508.759 764.681C508.759 764.469 508.753 764.259 508.741 764.05C508.753 764.05 508.765 764.05 508.777 764.05C508.765 764.259 508.759 764.469 508.759 764.681C508.759 770.248 512.895 774.761 517.997 774.761C523.099 774.761 527.235 770.248 527.235 764.681C527.235 763.418 527.022 762.209 526.633 761.095C530.282 760.013 533.712 758.776 536.858 757.641C549.059 753.24 557 750.375 557 764.051Z" fill="#E87878"/>
<g filter="url(#filter0_d)">
<path d="M433.107 594.388C434.02 598.285 410.216 597.739 379.992 604.827C349.767 611.915 324.568 623.952 323.655 620.056C322.741 616.159 346.502 607.254 376.726 600.166C406.95 593.078 432.193 590.491 433.107 594.388Z" fill="#0E0D0D"/>
</g>
<g filter="url(#filter1_d)">
<path d="M582.315 594.388C581.402 598.285 605.206 597.739 635.43 604.827C665.655 611.915 690.854 623.952 691.768 620.056C692.681 616.159 668.92 607.254 638.696 600.166C608.472 593.078 583.229 590.491 582.315 594.388Z" fill="#0E0D0D"/>
</g>
<rect x="225.5" y="181.5" width="567" height="36" rx="9.5" fill="white" stroke="black"/>
<rect x="225.5" y="234.5" width="567" height="212" rx="9.5" fill="white" stroke="black"/>
<defs>
<filter id="filter0_d" x="318" y="587.333" width="119.422" height="42.0682" filterUnits="userSpaceOnUse" color-interpolation-filters="sRGB">
<feFlood flood-opacity="0" result="BackgroundImageFix"/>
<feColorMatrix in="SourceAlpha" type="matrix" values="0 0 0 0 0 0 0 0 0 0 0 0 0 0 0 0 0 0 127 0"/>
<feOffset dy="4"/>
<feGaussianBlur stdDeviation="2"/>
<feColorMatrix type="matrix" values="0 0 0 0 0 0 0 0 0 0 0 0 0 0 0 0 0 0 0.25 0"/>
<feBlend mode="normal" in2="BackgroundImageFix" result="effect1_dropShadow"/>
<feBlend mode="normal" in="SourceGraphic" in2="effect1_dropShadow" result="shape"/>
</filter>
<filter id="filter1_d" x="578" y="587.333" width="119.422" height="42.0682" filterUnits="userSpaceOnUse" color-interpolation-filters="sRGB">
<feFlood flood-opacity="0" result="BackgroundImageFix"/>
<feColorMatrix in="SourceAlpha" type="matrix" values="0 0 0 0 0 0 0 0 0 0 0 0 0 0 0 0 0 0 127 0"/>
<feOffset dy="4"/>
<feGaussianBlur stdDeviation="2"/>
<feColorMatrix type="matrix" values="0 0 0 0 0 0 0 0 0 0 0 0 0 0 0 0 0 0 0.25 0"/>
<feBlend mode="normal" in2="BackgroundImageFix" result="effect1_dropShadow"/>
<feBlend mode="normal" in="SourceGraphic" in2="effect1_dropShadow" result="shape"/>
</filter>
</defs>
</svg>
