<svg width="57" height="34" viewBox="0 0 57 34" fill="none" xmlns="http://www.w3.org/2000/svg">
<path d="M55.522 5.994C55.6546 5.994 55.7818 5.94132 55.8755 5.84755C55.9693 5.75379 56.022 5.62661 56.022 5.494V2.494C56.022 2.36139 55.9693 2.23421 55.8755 2.14045C55.7818 2.04668 55.6546 1.994 55.522 1.994H54.022V0.5C54.022 0.367392 53.9693 0.240215 53.8755 0.146447C53.7818 0.052679 53.6546 0 53.522 0H30.522C30.3894 0 30.2622 0.052679 30.1684 0.146447C30.0747 0.240215 30.022 0.367392 30.022 0.5V12.49C30.022 12.6226 30.0747 12.7498 30.1684 12.8436C30.2622 12.9373 30.3894 12.99 30.522 12.99C30.6546 12.99 30.7818 12.9373 30.8755 12.8436C30.9693 12.7498 31.022 12.6226 31.022 12.49V1H49.022V20.232L46.245 22.084C46.1765 22.1297 46.1203 22.1915 46.0814 22.2641C46.0425 22.3367 46.0221 22.4177 46.022 22.5V32H30.522C30.3894 32 30.2622 32.0527 30.1684 32.1464C30.0747 32.2402 30.022 32.3674 30.022 32.5C30.022 32.6326 30.0747 32.7598 30.1684 32.8536C30.2622 32.9473 30.3894 33 30.522 33H53.522C53.6546 33 53.7818 32.9473 53.8755 32.8536C53.9693 32.7598 54.022 32.6326 54.022 32.5V15.994H55.522C55.6546 15.994 55.7818 15.9413 55.8755 15.8476C55.9693 15.7538 56.022 15.6266 56.022 15.494V12.494C56.022 12.3614 55.9693 12.2342 55.8755 12.1404C55.7818 12.0467 55.6546 11.994 55.522 11.994H54.022V10.994H55.522C55.6546 10.994 55.7818 10.9413 55.8755 10.8476C55.9693 10.7538 56.022 10.6266 56.022 10.494V7.494C56.022 7.36139 55.9693 7.23421 55.8755 7.14045C55.7818 7.04668 55.6546 6.994 55.522 6.994H54.022V5.994H55.522ZM54.022 2.994H55.022V4.994H54.022V2.994ZM53.022 2.494V32H47.022V22.768L49.799 20.916C49.8675 20.8703 49.9236 20.8085 49.9625 20.7359C50.0014 20.6634 50.0218 20.5823 50.022 20.5V1H53.022V2.494ZM55.022 12.994V14.994H54.022V12.994H55.022ZM55.022 7.994V9.994H54.022V7.994H55.022Z" fill="#2C4355"/>
<path d="M45.522 8C45.6546 8 45.7818 7.94732 45.8755 7.85355C45.9693 7.75978 46.022 7.63261 46.022 7.5V4.5C46.022 4.36739 45.9693 4.24021 45.8755 4.14645C45.7818 4.05268 45.6546 4 45.522 4H37.522C37.3894 4 37.2622 4.05268 37.1684 4.14645C37.0747 4.24021 37.022 4.36739 37.022 4.5V7.5C37.022 7.63261 37.0747 7.75978 37.1684 7.85355C37.2622 7.94732 37.3894 8 37.522 8H45.522ZM38.022 5H45.022V7H38.022V5Z" fill="#2C4355"/>
<path d="M38 11.99H27V5.49402C27 3.56402 25.43 1.99402 23.5 1.99402H3.5C1.57 1.99402 0 3.56402 0 5.49402V9.50002C0 9.63263 0.0526783 9.7598 0.146446 9.85357C0.240215 9.94734 0.367392 10 0.5 10H6V29.5C6 29.6326 6.05268 29.7598 6.14645 29.8536C6.24021 29.9473 6.36739 30 6.5 30H10.001C10.0042 30.7936 10.3214 31.5536 10.8834 32.1139C11.4454 32.6742 12.2064 32.9892 13 32.99V33.01H38C39.654 33.01 41 31.664 41 30.01V14.99C41 13.336 39.655 11.99 38 11.99ZM6 8.49402V9.00002H1V5.49402C1 4.11602 2.121 2.99402 3.5 2.99402C4.879 2.99402 6 4.11602 6 5.49402V8.49402ZM15 30.01C15 31.113 14.103 32.01 13 32.01V31.99C12.4716 31.9892 11.965 31.7796 11.5905 31.4068C11.2161 31.0341 11.0042 30.5284 11.001 30H15V30.01ZM9.5 20.994H15V22.994H9.5C9.36739 22.994 9.24021 23.0467 9.14645 23.1405C9.05268 23.2342 9 23.3614 9 23.494C9 23.6266 9.05268 23.7538 9.14645 23.8476C9.24021 23.9413 9.36739 23.994 9.5 23.994H15V25.994H9.5C9.36739 25.994 9.24021 26.0467 9.14645 26.1405C9.05268 26.2342 9 26.3614 9 26.494C9 26.6266 9.05268 26.7538 9.14645 26.8476C9.24021 26.9413 9.36739 26.994 9.5 26.994H15V29H7V5.49402C7 4.51402 6.593 3.63002 5.942 2.99402H23.5C24.879 2.99402 26 4.11602 26 5.49402V17.01H18C17.899 17.01 17.803 17.03 17.704 17.04C17.64 17.0105 17.5705 16.9948 17.5 16.994H9.5C9.36739 16.994 9.24021 17.0467 9.14645 17.1405C9.05268 17.2342 9 17.3614 9 17.494C9 17.6266 9.05268 17.7538 9.14645 17.8476C9.24021 17.9413 9.36739 17.994 9.5 17.994H15.793C15.2896 18.5391 15.0073 19.2521 15.001 19.994H9.499C9.43334 19.9941 9.36833 20.0071 9.3077 20.0323C9.24706 20.0575 9.19198 20.0943 9.14559 20.1408C9.09921 20.1873 9.06244 20.2424 9.03737 20.3031C9.0123 20.3638 8.99943 20.4289 8.9995 20.4945C8.99957 20.5602 9.01256 20.6252 9.03775 20.6858C9.06294 20.7465 9.09982 20.8015 9.1463 20.8479C9.19277 20.8943 9.24793 20.9311 9.30862 20.9561C9.36931 20.9812 9.43434 20.9941 9.5 20.994ZM40 23.49V30.01C40 31.113 39.103 32.01 38 32.01H15.235C15.7288 31.461 16.0017 30.7485 16.001 30.01V20.01C16.001 18.907 16.898 18.01 18.001 18.01H38.001C39.104 18.01 40.001 18.907 40.001 20.01V23.49H40ZM40 17.79C39.4536 17.2903 38.7405 17.0121 38 17.01H27V12.99H38C39.103 12.99 40 13.887 40 14.99V17.79Z" fill="#19D3DA"/>
<path d="M12.5 5.99402H20.5C20.6326 5.99402 20.7598 5.94134 20.8536 5.84757C20.9473 5.7538 21 5.62663 21 5.49402C21 5.36141 20.9473 5.23423 20.8536 5.14046C20.7598 5.0467 20.6326 4.99402 20.5 4.99402H12.5C12.3674 4.99402 12.2402 5.0467 12.1464 5.14046C12.0527 5.23423 12 5.36141 12 5.49402C12 5.62663 12.0527 5.7538 12.1464 5.84757C12.2402 5.94134 12.3674 5.99402 12.5 5.99402ZM9.5 8.99402H23.5C23.6326 8.99402 23.7598 8.94134 23.8536 8.84757C23.9473 8.7538 24 8.62663 24 8.49402C24 8.36141 23.9473 8.23423 23.8536 8.14046C23.7598 8.0467 23.6326 7.99402 23.5 7.99402H9.5C9.36739 7.99402 9.24021 8.0467 9.14645 8.14046C9.05268 8.23423 9 8.36141 9 8.49402C9 8.62663 9.05268 8.7538 9.14645 8.84757C9.24021 8.94134 9.36739 8.99402 9.5 8.99402ZM9.5 11.994H23.5C23.6326 11.994 23.7598 11.9413 23.8536 11.8476C23.9473 11.7538 24 11.6266 24 11.494C24 11.3614 23.9473 11.2342 23.8536 11.1405C23.7598 11.0467 23.6326 10.994 23.5 10.994H9.5C9.36739 10.994 9.24021 11.0467 9.14645 11.1405C9.05268 11.2342 9 11.3614 9 11.494C9 11.6266 9.05268 11.7538 9.14645 11.8476C9.24021 11.9413 9.36739 11.994 9.5 11.994ZM9.5 14.994H23.5C23.6326 14.994 23.7598 14.9413 23.8536 14.8476C23.9473 14.7538 24 14.6266 24 14.494C24 14.3614 23.9473 14.2342 23.8536 14.1405C23.7598 14.0467 23.6326 13.994 23.5 13.994H9.5C9.36739 13.994 9.24021 14.0467 9.14645 14.1405C9.05268 14.2342 9 14.3614 9 14.494C9 14.6266 9.05268 14.7538 9.14645 14.8476C9.24021 14.9413 9.36739 14.994 9.5 14.994Z" fill="#19D3DA"/>
</svg>
